# xmcd
#
# Track frame offsets:
#	150
#	21296
#	34232
#	51208
#	67420
#	83698
#	102542
#	118334
#	132887
#	153401
#
# Disc length: 2283 seconds
#
# Revision: 1
# Processed by: cddbd v1.5.2PL0 Copyright (c) Steve Scherf et al.
# Submitted via: audiograbber 1.83.01
#
DISCID=8f08e90a
DTITLE=Austin Lucas - Between the Moon and the Midwest
DYEAR=2016
DGENRE=
TTITLE0=Unbroken Hearts
TTITLE1=Ain't we free
TTITLE2=Kristie
TTITLE3=Rae
TTITLE4=Wrong Side of the Dream
TTITLE5=Pray for Rain
TTITLE6=The Flame
TTITLE7=Next to You
TTITLE8=Call the Doctor William
TTITLE9=Midnight
EXTD=
EXTT0=
EXTT1=
EXTT2=
EXTT3=
EXTT4=
EXTT5=
EXTT6=
EXTT7=
EXTT8=
EXTT9=
PLAYORDER=
